<svg width="712" height="712" viewBox="0 0 712 712" fill="none" xmlns="http://www.w3.org/2000/svg">
<rect width="712.002" height="712.002" fill="white"/>
<rect width="712.002" height="712.002" fill="url(#paint0_radial_24_298)"/>
<path d="M437.216 156C444.119 156 449.716 161.597 449.716 168.5V200.643C449.716 207.546 455.312 213.143 462.216 213.143H494.358C501.262 213.143 506.858 218.739 506.858 225.643V257.786C506.859 264.689 512.455 270.286 519.358 270.286H545.251C552.154 270.286 557.751 275.882 557.751 282.785V429.214C557.751 436.117 552.154 441.714 545.251 441.714H519.358C512.455 441.714 506.859 447.31 506.858 454.214V486.357C506.858 493.261 501.262 498.857 494.358 498.857H462.216C455.312 498.857 449.716 504.454 449.716 511.357V543.5C449.716 550.403 444.119 556 437.216 556H176.501C169.598 556 164.001 550.404 164.001 543.5V168.5C164.001 161.597 169.598 156 176.501 156H437.216ZM257.213 208.78C253.761 208.78 250.963 211.579 250.963 215.03V244.62C250.963 248.072 253.761 250.87 257.213 250.87H286.804C290.255 250.87 293.054 253.669 293.054 257.12V286.711C293.054 290.163 295.852 292.961 299.304 292.961H328.894C332.345 292.961 335.143 295.759 335.144 299.211V328.802C335.144 332.253 337.942 335.052 341.394 335.052H370.984C374.436 335.052 377.234 337.85 377.234 341.302V370.893C377.234 374.344 374.436 377.142 370.984 377.143H341.394C337.942 377.143 335.144 379.941 335.144 383.393V412.982C335.144 416.434 332.345 419.232 328.894 419.232H299.304C295.852 419.232 293.054 422.031 293.054 425.482V455.073C293.054 458.525 290.255 461.323 286.804 461.323H257.213C253.761 461.323 250.963 464.122 250.963 467.573V497.164C250.963 500.616 253.761 503.414 257.213 503.414H328.894C332.345 503.414 335.144 500.616 335.144 497.164V467.573C335.144 464.122 337.942 461.323 341.394 461.323H370.984C374.436 461.323 377.234 458.525 377.234 455.073V425.482C377.235 422.031 380.033 419.233 383.484 419.232H413.075C416.527 419.232 419.325 416.434 419.325 412.982V383.393C419.325 379.941 422.123 377.143 425.575 377.143H455.166C458.617 377.142 461.416 374.344 461.416 370.893V341.302C461.416 337.85 458.618 335.052 455.166 335.052H425.575C422.123 335.052 419.325 332.253 419.325 328.802V299.211C419.325 295.759 416.527 292.961 413.075 292.961H383.484C380.033 292.961 377.234 290.163 377.234 286.711V257.12C377.234 253.669 374.436 250.87 370.984 250.87H341.394C337.942 250.87 335.144 248.072 335.144 244.62V215.03C335.144 211.579 332.345 208.78 328.894 208.78H257.213Z" fill="#FC8E02"/>
<defs>
<radialGradient id="paint0_radial_24_298" cx="0" cy="0" r="1" gradientUnits="userSpaceOnUse" gradientTransform="translate(356.001 356.001) rotate(90) scale(356.001)">
<stop offset="0.552885" stop-color="#FC8E02" stop-opacity="0.05"/>
<stop offset="1" stop-color="#FC8E02" stop-opacity="0.2"/>
</radialGradient>
</defs>
</svg>
